<?xml version="1.0" encoding="utf-8"?>
<!-- Generator: Adobe Illustrator 19.2.1, SVG Export Plug-In . SVG Version: 6.00 Build 0)  -->
<svg version="1.1" id="Layer_1" xmlns="http://www.w3.org/2000/svg" xmlns:xlink="http://www.w3.org/1999/xlink" x="0px" y="0px"
	 viewBox="0 0 200 200" style="enable-background:new 0 0 200 200;" xml:space="preserve">
<style type="text/css">
	.st0{fill:#DC4F42;}
</style>
<path class="st0" d="M5,96.2C5.5,65,34.1,37.8,65.3,38.8c14.9-0.7,28.9,5.8,40.4,14.9c-4.8,5.6-9.9,10.9-15.3,15.9
	c-13.7-9.5-33.3-12.2-47-1.2c-19.6,13.6-20.6,45.7-1.6,60.3c18.4,16.7,53.1,8.4,58.2-17.1c-11.5-0.2-23.1,0-34.6-0.4
	c0-6.9,0-13.7,0-20.6c19.3,0,38.5,0,57.8,0c1.2,16.2-1,33.4-10.9,46.7c-15,21.1-45.3,27.3-68.8,18.3S3,121.6,5,96.2z"/>
<path class="st0" d="M160.6,73.2h17.2c0,5.7,0,11.5,0.1,17.3l17.3,0.1v17.2l-17.3,0.1c0,5.8,0,11.5-0.1,17.3h-17.2
	c0-5.7,0-11.5-0.1-17.2l-17.3-0.2V90.5l17.3-0.1C160.5,84.7,160.5,79,160.6,73.2z"/>
</svg>
